<svg class="animated" id="freepik_stories-mission-impossible" xmlns="http://www.w3.org/2000/svg" viewBox="0 0 500 500" version="1.1" xmlns:xlink="http://www.w3.org/1999/xlink" xmlns:svgjs="http://svgjs.com/svgjs"><style>svg#freepik_stories-mission-impossible:not(.animated) .animable {opacity: 0;}svg#freepik_stories-mission-impossible.animated #freepik--Character--inject-61 {animation: 1.5s Infinite  linear floating;animation-delay: 0s;}            @keyframes floating {                0% {                    opacity: 1;                    transform: translateY(0px);                }                50% {                    transform: translateY(-10px);                }                100% {                    opacity: 1;                    transform: translateY(0px);                }            }        </style><g id="freepik--background-complete--inject-61" class="animable" style="transform-origin: 250px 228.23px;"><rect y="382.4" width="500" height="0.25" style="fill: rgb(235, 235, 235); transform-origin: 250px 382.525px;" id="elo47dd3jwlu" class="animable"></rect><rect x="416.78" y="398.49" width="33.12" height="0.25" style="fill: rgb(235, 235, 235); transform-origin: 433.34px 398.615px;" id="elw16uxe92y88" class="animable"></rect><rect x="322.53" y="401.21" width="8.69" height="0.25" style="fill: rgb(235, 235, 235); transform-origin: 326.875px 401.335px;" id="el7y3l35i8a5" class="animable"></rect><rect x="368.11" y="389.21" width="47.67" height="0.25" style="fill: rgb(235, 235, 235); transform-origin: 391.945px 389.335px;" id="el8xh6hoiervl" class="animable"></rect><rect x="52.46" y="390.89" width="23.68" height="0.25" style="fill: rgb(235, 235, 235); transform-origin: 64.3px 391.015px;" id="el2genn7m2q9q" class="animable"></rect><rect x="85.04" y="390.89" width="25.85" height="0.25" style="fill: rgb(235, 235, 235); transform-origin: 97.965px 391.015px;" id="elb1ve20mbsu7" class="animable"></rect><rect x="131.47" y="395.11" width="64.64" height="0.25" style="fill: rgb(235, 235, 235); transform-origin: 163.79px 395.235px;" id="elm8mbn23e76r" class="animable"></rect><path d="M237,337.8H43.91a5.71,5.71,0,0,1-5.7-5.71V60.66A5.71,5.71,0,0,1,43.91,55H237a5.71,5.71,0,0,1,5.71,5.71V332.09A5.71,5.71,0,0,1,237,337.8ZM43.91,55.2a5.46,5.46,0,0,0-5.45,5.46V332.09a5.46,5.46,0,0,0,5.45,5.46H237a5.47,5.47,0,0,0,5.46-5.46V60.66A5.47,5.47,0,0,0,237,55.2Z" style="fill: rgb(235, 235, 235); transform-origin: 140.46px 196.4px;" id="el98twf5wccmt" class="animable"></path><path d="M453.31,337.8H260.21a5.72,5.72,0,0,1-5.71-5.71V60.66A5.72,5.72,0,0,1,260.21,55h193.1A5.71,5.71,0,0,1,459,60.66V332.09A5.71,5.71,0,0,1,453.31,337.8ZM260.21,55.2a5.47,5.47,0,0,0-5.46,5.46V332.09a5.47,5.47,0,0,0,5.46,5.46h193.1a5.47,5.47,0,0,0,5.46-5.46V60.66a5.47,5.47,0,0,0-5.46-5.46Z" style="fill: rgb(235, 235, 235); transform-origin: 356.75px 196.4px;" id="el2fopc24y4rn" class="animable"></path><g id="el92zkdp22ept"><rect x="56.22" y="277.34" width="27.5" height="105.06" style="fill: rgb(230, 230, 230); transform-origin: 69.97px 329.87px; transform: rotate(180deg);" class="animable" id="elhf1rcxvhgz"></rect></g><polygon points="61.45 382.4 56.22 382.4 56.22 367.54 66.92 367.54 61.45 382.4" style="fill: rgb(240, 240, 240); transform-origin: 61.57px 374.97px;" id="elj8lay8166n" class="animable"></polygon><g id="el33vii6kidp7"><rect x="213.15" y="277.34" width="27.5" height="105.06" style="fill: rgb(230, 230, 230); transform-origin: 226.9px 329.87px; transform: rotate(180deg);" class="animable" id="elomhbq5hs4ya"></rect></g><g id="elj1v4yuy5f6"><rect x="56.22" y="277.34" width="161.48" height="95.94" style="fill: rgb(240, 240, 240); transform-origin: 136.96px 325.31px; transform: rotate(180deg);" class="animable" id="elzf3lvxjm2r"></rect></g><g id="elchk8htv5ruh"><rect x="152.15" y="294.52" width="72.5" height="47.87" style="fill: rgb(230, 230, 230); transform-origin: 188.4px 318.455px; transform: rotate(-90deg);" class="animable" id="elfcc60h90oq"></rect></g><path d="M183.67,286.36h9.47A15,15,0,0,0,204,281.69H172.79A15,15,0,0,0,183.67,286.36Z" style="fill: rgb(240, 240, 240); transform-origin: 188.395px 284.025px;" id="el57gketm63eu" class="animable"></path><g id="eli0hrbhwo87p"><rect x="100.71" y="294.52" width="72.5" height="47.87" style="fill: rgb(230, 230, 230); transform-origin: 136.96px 318.455px; transform: rotate(-90deg);" class="animable" id="el9q343hl8o2u"></rect></g><path d="M131.74,286.36h9.47a15,15,0,0,0,10.88-4.67H120.87A15,15,0,0,0,131.74,286.36Z" style="fill: rgb(240, 240, 240); transform-origin: 136.48px 284.025px;" id="elqdra40voldl" class="animable"></path><g id="elsdcyxv16n3l"><rect x="49.28" y="294.52" width="72.5" height="47.87" style="fill: rgb(230, 230, 230); transform-origin: 85.53px 318.455px; transform: rotate(-90deg);" class="animable" id="elf1l1i22poyv"></rect></g><path d="M80.31,286.36h9.47a15,15,0,0,0,10.87-4.67H69.43A15,15,0,0,0,80.31,286.36Z" style="fill: rgb(240, 240, 240); transform-origin: 85.04px 284.025px;" id="elt63hpcx7zrg" class="animable"></path><polygon points="212.48 382.4 217.71 382.4 217.71 367.54 207 367.54 212.48 382.4" style="fill: rgb(240, 240, 240); transform-origin: 212.355px 374.97px;" id="eli9p7hg9mpkd" class="animable"></polygon><g id="eluv3l1jp01n"><rect x="277.72" y="73.99" width="151.5" height="141.9" style="fill: rgb(230, 230, 230); transform-origin: 353.47px 144.94px; transform: rotate(180deg);" class="animable" id="elzb6tp7dhca"></rect></g><g id="el96ge22onmoe"><rect x="272.27" y="73.99" width="154.4" height="141.9" style="fill: rgb(240, 240, 240); transform-origin: 349.47px 144.94px; transform: rotate(180deg);" class="animable" id="el67ymipil5ni"></rect></g><g id="eln9nsvrt0xan"><rect x="277.72" y="215.89" width="151.5" height="10.11" style="fill: rgb(230, 230, 230); transform-origin: 353.47px 220.945px; transform: rotate(180deg);" class="animable" id="elkyfqmtmhay"></rect></g><g id="el4apnqs58wbm"><rect x="263.21" y="215.89" width="154.4" height="10.11" style="fill: rgb(240, 240, 240); transform-origin: 340.41px 220.945px; transform: rotate(180deg);" class="animable" id="elqccb7xiabs"></rect></g><g id="ellu1ztpc2rua"><rect x="286.14" y="75.35" width="126.66" height="139.17" style="fill: rgb(250, 250, 250); transform-origin: 349.47px 144.935px; transform: rotate(90deg);" class="animable" id="elm377b1cnyqp"></rect></g><polygon points="404.49 208.27 359.78 81.61 338.67 81.61 383.38 208.27 404.49 208.27" style="fill: rgb(255, 255, 255); transform-origin: 371.58px 144.94px;" id="elvfqurxcvqyc" class="animable"></polygon><path d="M415.53,165.3a.55.55,0,0,1-.54-.55V86.56a.54.54,0,0,1,.54-.54.55.55,0,0,1,.55.54v78.19A.55.55,0,0,1,415.53,165.3Z" style="fill: rgb(240, 240, 240); transform-origin: 415.535px 125.66px;" id="elcd3xfyy0er" class="animable"></path><polygon points="378.85 208.27 334.14 81.61 325.91 81.61 370.62 208.27 378.85 208.27" style="fill: rgb(255, 255, 255); transform-origin: 352.38px 144.94px;" id="elfroj6uc543" class="animable"></polygon><g id="el6vfk3hdpau9"><rect x="217.04" y="144.46" width="126.66" height="0.97" style="fill: rgb(230, 230, 230); transform-origin: 280.37px 144.945px; transform: rotate(90deg);" class="animable" id="ely88vkqyecr8"></rect></g><polygon points="270.47 91.35 421.98 91.35 422.68 84.57 271.17 84.57 270.47 91.35" style="fill: rgb(230, 230, 230); transform-origin: 346.575px 87.96px;" id="el9d263bpr5v7" class="animable"></polygon><polygon points="270.47 96.32 421.98 96.32 422.68 89.53 271.17 89.53 270.47 96.32" style="fill: rgb(230, 230, 230); transform-origin: 346.575px 92.925px;" id="elrsh8ddqqev8" class="animable"></polygon><polygon points="270.47 102.28 421.98 102.28 422.68 95.49 271.17 95.49 270.47 102.28" style="fill: rgb(230, 230, 230); transform-origin: 346.575px 98.885px;" id="elp81t5wbk6jm" class="animable"></polygon><polygon points="270.47 108.91 421.98 108.91 422.68 102.13 271.17 102.13 270.47 108.91" style="fill: rgb(230, 230, 230); transform-origin: 346.575px 105.52px;" id="eljy7etga3nt" class="animable"></polygon><polygon points="270.47 116.86 421.98 116.86 422.68 110.07 271.17 110.07 270.47 116.86" style="fill: rgb(230, 230, 230); transform-origin: 346.575px 113.465px;" id="elwch8pyjwdmc" class="animable"></polygon><polygon points="270.47 125.79 421.98 125.79 422.68 119.01 271.17 119.01 270.47 125.79" style="fill: rgb(230, 230, 230); transform-origin: 346.575px 122.4px;" id="elmw9llzxx9hk" class="animable"></polygon><g id="el4adlj1rae6m"><rect x="401.82" y="305.1" width="27.18" height="72.69" style="fill: rgb(240, 240, 240); transform-origin: 415.41px 341.445px; transform: rotate(180deg);" class="animable" id="eldehc3fokruq"></rect></g><g id="elef8qk8s01wm"><rect x="289.74" y="377.79" width="134.03" height="4.61" style="fill: rgb(240, 240, 240); transform-origin: 356.755px 380.095px; transform: rotate(180deg);" class="animable" id="eln6o32e3n1y"></rect></g><rect x="284.53" y="305.1" width="117.29" height="72.69" style="fill: rgb(245, 245, 245); transform-origin: 343.175px 341.445px;" id="el2zxf1pn5486" class="animable"></rect><rect x="295.21" y="314.05" width="95.92" height="23.84" style="fill: rgb(240, 240, 240); transform-origin: 343.17px 325.97px;" id="elid9yzuqvf8q" class="animable"></rect><rect x="295.21" y="345" width="95.92" height="23.84" style="fill: rgb(240, 240, 240); transform-origin: 343.17px 356.92px;" id="elhpsrgzi5hmc" class="animable"></rect><g id="ela6u3y0hdmfk"><rect x="329.75" y="324.33" width="26.84" height="3.27" rx="1.31" style="fill: rgb(245, 245, 245); transform-origin: 343.17px 325.965px; transform: rotate(180deg);" class="animable" id="el6lx452omcro"></rect></g><g id="el4iboz0bbn0k"><rect x="329.75" y="355.29" width="26.84" height="3.27" rx="1.31" style="fill: rgb(245, 245, 245); transform-origin: 343.17px 356.925px; transform: rotate(180deg);" class="animable" id="elid0tucffpy9"></rect></g><g id="el4myrbc7duuh"><circle cx="156.64" cy="256.29" r="9.97" style="fill: rgb(245, 245, 245); transform-origin: 156.64px 256.29px; transform: rotate(-13.28deg);" class="animable" id="el93fezuyr2zh"></circle></g><g id="el84khp8yrgpv"><circle cx="139.23" cy="255.44" r="9.97" style="fill: rgb(245, 245, 245); transform-origin: 139.23px 255.44px; transform: rotate(-13.28deg);" class="animable" id="ellzv1rez5lf"></circle></g><g id="elvurr2b7lf9i"><circle cx="115.36" cy="257.2" r="9.97" style="fill: rgb(245, 245, 245); transform-origin: 115.36px 257.2px; transform: rotate(-13.28deg);" class="animable" id="elcf7flizcaq7"></circle></g><g id="eluigzvcjfccd"><circle cx="125.64" cy="261.8" r="9.97" style="fill: rgb(245, 245, 245); transform-origin: 125.64px 261.8px; transform: rotate(-13.28deg);" class="animable" id="el8yxm8kycbil"></circle></g><path d="M179.83,259.88s-1.12,17.63-44.22,17.63-44.22-17.63-44.22-17.63Z" style="fill: rgb(230, 230, 230); transform-origin: 135.61px 268.695px;" id="el9pe9me8xi56" class="animable"></path><g id="elqswtgsfc9ko"><rect x="68.27" y="98.28" width="37.25" height="92.64" style="fill: rgb(230, 230, 230); transform-origin: 86.895px 144.6px; transform: rotate(180deg);" class="animable" id="elgrrd59wad6p"></rect></g><g id="elpsrknw2nuq"><rect x="60.31" y="98.28" width="41.75" height="92.64" style="fill: rgb(245, 245, 245); transform-origin: 81.185px 144.6px; transform: rotate(180deg);" class="animable" id="elz5w5bx98aa"></rect></g><g id="elp080tpj3o7l"><rect x="40.82" y="130.09" width="80.74" height="29.03" style="fill: rgb(255, 255, 255); transform-origin: 81.19px 144.605px; transform: rotate(90deg);" class="animable" id="elzf4e6akqo3"></rect></g><g id="elrwkxditmav"><rect x="127.07" y="66.02" width="37.25" height="92.64" style="fill: rgb(230, 230, 230); transform-origin: 145.695px 112.34px; transform: rotate(180deg);" class="animable" id="eloa5eazgmy3c"></rect></g><g id="el0fy9lwgqthp"><rect x="119.11" y="66.02" width="41.75" height="92.64" style="fill: rgb(245, 245, 245); transform-origin: 139.985px 112.34px; transform: rotate(180deg);" class="animable" id="el66cy4kd400n"></rect></g><g id="eln7sdyykd3aq"><rect x="99.61" y="97.83" width="80.74" height="29.03" style="fill: rgb(255, 255, 255); transform-origin: 139.98px 112.345px; transform: rotate(90deg);" class="animable" id="elljn1zz99j88"></rect></g><g id="eljpzc8e6qfap"><rect x="180.89" y="123.24" width="37.25" height="92.64" style="fill: rgb(230, 230, 230); transform-origin: 199.515px 169.56px; transform: rotate(180deg);" class="animable" id="elz03ozhig1q"></rect></g><g id="el1s4b5kt7clg"><rect x="172.93" y="123.24" width="41.75" height="92.64" style="fill: rgb(245, 245, 245); transform-origin: 193.805px 169.56px; transform: rotate(180deg);" class="animable" id="el30csh6h406p"></rect></g><g id="elm668c2bmwnc"><rect x="153.44" y="155.05" width="80.74" height="29.03" style="fill: rgb(255, 255, 255); transform-origin: 193.81px 169.565px; transform: rotate(90deg);" class="animable" id="eloa7pbwphbaf"></rect></g></g><g id="freepik--Shadow--inject-61" class="animable" style="transform-origin: 250px 416.24px;"><ellipse id="freepik--path--inject-61" cx="250" cy="416.24" rx="193.89" ry="11.32" style="fill: rgb(245, 245, 245); transform-origin: 250px 416.24px;" class="animable"></ellipse></g><g id="freepik--Character--inject-61" class="animable" style="transform-origin: 315.146px 135.68px;"><polygon points="430.62 177.76 433.54 184.72 418.2 193.32 415.29 186.36 430.62 177.76" style="fill: rgb(255, 139, 123); transform-origin: 424.415px 185.54px;" id="el0mfl3vhelmn" class="animable"></polygon><polygon points="420.63 132.41 424.43 138.92 412.32 152.82 408.51 146.31 420.63 132.41" style="fill: rgb(255, 139, 123); transform-origin: 416.47px 142.615px;" id="eltb0h007b9f" class="animable"></polygon><path d="M424.49,140.09l-7.94-4.64a.66.66,0,0,1-.3-.77l2.1-6.54a1.11,1.11,0,0,1,1.63-.6c2.53,1.54,4.31,2.78,7.52,4.66,2,1.16,6.18,3.34,8.92,4.93s1.51,4.51.24,4.1c-5.66-1.83-8.43-1.42-10.88-.92A1.82,1.82,0,0,1,424.49,140.09Z" style="fill: rgb(38, 50, 56); transform-origin: 427.143px 134.324px;" id="ellvca52u7i4" class="animable"></path><path d="M432.7,185.51l-5.63-6a.65.65,0,0,1-.06-.82l3.87-5.67a1.1,1.1,0,0,1,1.73-.13c2,2.21,4.8,5.46,7.35,8.19,3,3.19,4.05,4.26,7.55,8,2.12,2.26.42,5-.67,4.27-5-3.43-6.69-5.33-12.47-6.9A3.47,3.47,0,0,1,432.7,185.51Z" style="fill: rgb(38, 50, 56); transform-origin: 437.707px 183px;" id="elzu610kpove" class="animable"></path><path d="M248,216.22c-.9,5.82-1.87,11.67-2.9,17.48L242,251.39a15.19,15.19,0,0,1-2.68,6,19.61,19.61,0,0,1-4.23,4.13,32.23,32.23,0,0,1-9.3,4.4,55.72,55.72,0,0,1-9.33,1.94c-1.55.19-3.1.31-4.64.41s-3.06.13-4.71.08l-.36-5.65c2.7-.55,5.57-1.19,8.26-2a60.68,60.68,0,0,0,7.82-2.81A25.14,25.14,0,0,0,229.2,254a9.5,9.5,0,0,0,1.93-2.26,5.69,5.69,0,0,0,.75-2.17l.4-4.2c.14-1.5.32-3,.48-4.47.35-3,.72-5.94,1.12-8.89.8-5.92,1.73-11.79,2.81-17.67Z" style="fill: rgb(255, 139, 123); transform-origin: 227.375px 241.357px;" id="elcm009tb4gu8" class="animable"></path><path d="M249.08,218.38c-.15,1.52-.39,3.09-.67,4.65a113.39,113.39,0,0,1-3.35,13.2l-12.2-3.52s-3-11.31,0-20.3,12.06-9.61,15.52-2.5C249.34,211.84,249.43,215,249.08,218.38Z" style="fill: rgb(38, 50, 56); transform-origin: 240.397px 220.648px;" id="elqr3ien6aqol" class="animable"></path><g id="el9c6gqdu0t38"><path d="M249.08,218.38c-.15,1.52-.39,3.09-.67,4.65a113.39,113.39,0,0,1-3.35,13.2l-12.2-3.52s-3-11.31,0-20.3,12.06-9.61,15.52-2.5C249.34,211.84,249.43,215,249.08,218.38Z" style="fill: rgb(255, 255, 255); opacity: 0.2; transform-origin: 240.397px 220.648px;" class="animable" id="el5mtlmsjd9bu"></path></g><g id="elnkjney6az7"><path d="M249.08,218.38c-.15,1.52-.39,3.09-.67,4.65l-5.08-1C243.75,219.44,246.58,216.14,249.08,218.38Z" style="opacity: 0.2; transform-origin: 246.205px 220.334px;" class="animable" id="eljagpbtirslj"></path></g><path d="M210.76,262.05l-8.24.33,3.62,8.93a7.24,7.24,0,0,0,6.91-5.11Z" style="fill: rgb(255, 139, 123); transform-origin: 207.785px 266.68px;" id="el1mpezy1isyc" class="animable"></path><polygon points="196.36 266.7 202.41 271.36 206.14 271.31 202.52 262.38 196.36 266.7" style="fill: rgb(255, 139, 123); transform-origin: 201.25px 266.87px;" id="elt8n4cs8dy8m" class="animable"></polygon><g id="el4s93ytj305a"><polygon points="418.21 193.32 426.11 188.88 423.19 181.92 415.29 186.36 418.21 193.32" style="opacity: 0.2; transform-origin: 420.7px 187.62px;" class="animable" id="elh2khi2ogsv7"></polygon></g><g id="elzdnby0y2fbs"><polygon points="408.51 146.3 412.32 152.81 418.89 145.28 413.84 140.18 408.51 146.3" style="opacity: 0.2; transform-origin: 413.7px 146.495px;" class="animable" id="eljb0u12euv3h"></polygon></g><path d="M247.37,220.84c8.38-3.18,24.52-7.91,52.61-11.48l-8.07-39.54c-24.59.48-45,5.73-73.4,14.69,0,0,2.5,9.81,5.42,15.72a148.87,148.87,0,0,0,8.34,15c.34.5.69,1,1,1.47A12.05,12.05,0,0,0,247.37,220.84Z" style="fill: rgb(38, 50, 56); transform-origin: 259.245px 195.738px;" id="elc8jcuvsd5w8" class="animable"></path><g id="elfhru2cbl4ob"><path d="M247.37,220.84c8.38-3.18,24.52-7.91,52.61-11.48l-8.07-39.54c-24.59.48-45,5.73-73.4,14.69,0,0,2.5,9.81,5.42,15.72a148.87,148.87,0,0,0,8.34,15c.34.5.69,1,1,1.47A12.05,12.05,0,0,0,247.37,220.84Z" style="fill: rgb(255, 255, 255); opacity: 0.2; transform-origin: 259.245px 195.738px;" class="animable" id="elmk3bbjorf2"></path></g><g id="el0y6nf2o8h30g"><rect x="278.4" y="168.41" width="10.09" height="46.35" style="fill: rgb(38, 50, 56); transform-origin: 283.445px 191.585px; transform: rotate(-5.24deg);" class="animable" id="elzu3xk36hnsr"></rect></g><path d="M283.35,194l-3.94.37a1.91,1.91,0,0,1-2.08-1.74h0a1.91,1.91,0,0,1,1.73-2.08l3.94-.36a1.92,1.92,0,0,1,2.08,1.73h0A1.91,1.91,0,0,1,283.35,194Z" style="fill: rgb(255, 255, 255); transform-origin: 281.205px 192.28px;" id="el7k33sep31s8" class="animable"></path><path d="M284.73,209.36l-3.94.36a1.91,1.91,0,0,1-2.08-1.73h0a1.92,1.92,0,0,1,1.73-2.08l3.94-.36a1.91,1.91,0,0,1,2.08,1.73h0A1.91,1.91,0,0,1,284.73,209.36Z" style="fill: rgb(255, 255, 255); transform-origin: 282.585px 207.635px;" id="eljaz5m1qhhb" class="animable"></path><rect x="280.86" width="1.73" height="172.64" style="fill: rgb(38, 50, 56); transform-origin: 281.725px 86.32px;" id="elz3703nnntqp" class="animable"></rect><g id="elkp4fy26cllk"><path d="M232.12,186.66s7.78-3.75,12-9.69q-4.44,1.17-9.11,2.52Z" style="opacity: 0.2; transform-origin: 238.12px 181.815px;" class="animable" id="el4g3l2mlxjbp"></path></g><path d="M207.88,211.1c5.35-1.73,14.71-5.7,16.05-10.87,0,0,5.63-1.4,10.61,7.56,5.48,9.86-2.27,7.43-2.27,7.43-4.28-4.66-8.19-2.3-11.42.72Z" style="fill: rgb(255, 139, 123); transform-origin: 222.19px 208.045px;" id="elf73fwrxrr54" class="animable"></path><g id="elifpp2dw2xp8"><path d="M213.17,213.07l7.68,2.86a18.2,18.2,0,0,1,2.4-1.94c-1.44-1.89-5.26-3.46-7.54-2.48A8.36,8.36,0,0,0,213.17,213.07Z" style="opacity: 0.2; transform-origin: 218.21px 213.57px;" class="animable" id="elao7u5l8pry"></path></g><path d="M186.43,207.6c-1.44-1.74-3-2-4.66-1,4.48,3.9,4.16,13.81,11.26,16.37s12.42-5.83,14.13-9a4.16,4.16,0,0,0,.52-3c2.35-3.33-6.43-7.76-3.84-12.18,2.83-4.85-.84-7.18-8-9C196.87,194.93,185.71,202.29,186.43,207.6Z" style="fill: rgb(38, 50, 56); transform-origin: 194.927px 206.619px;" id="elsu52b10ii5s" class="animable"></path><path d="M207.6,205.2c6.92,2.86,11.12,4.18,13.52,9,3.62,7.24-2.61,14.85-10.25,14.12-6.87-.66-17-5.22-17.47-13.11A10.21,10.21,0,0,1,207.6,205.2Z" style="fill: rgb(255, 139, 123); transform-origin: 207.779px 216.374px;" id="ellv15sl8wn6" class="animable"></path><path d="M210.49,210.4c-3.59.6-13.49,1.49-15.79-5.69S205.62,197,206,191.1c5.73.91,4.59,3.85,8.27,8.57C220.21,207.35,216.63,209.37,210.49,210.4Z" style="fill: rgb(38, 50, 56); transform-origin: 205.87px 200.946px;" id="elslfd9jvsqwa" class="animable"></path><path d="M190,218.79c-2.29-2.84-2.46-11,1.72-17.26s2.81-.35,8.16-2.94c-1.22,3.84.69,11.45-.51,16.88C197.82,222.54,193.9,223.65,190,218.79Z" style="fill: rgb(38, 50, 56); transform-origin: 194.139px 210.145px;" id="elyql95jot1ak" class="animable"></path><path d="M212.88,205.25a7.16,7.16,0,0,1,3.25,4.36c.6,2.42-1.59,3.56-3.84,2.82-2-.67-4.76-2.73-4.36-5.13A3.2,3.2,0,0,1,212.88,205.25Z" style="fill: rgb(255, 139, 123); transform-origin: 212.061px 208.673px;" id="elm99ydid0k7l" class="animable"></path><path d="M214,208a1.19,1.19,0,1,1-1.47-.81A1.19,1.19,0,0,1,214,208Z" style="fill: rgb(38, 50, 56); transform-origin: 212.858px 208.334px;" id="el3yjiulgcx8g" class="animable"></path><path d="M223.46,223h0a.23.23,0,0,1-.19-.26,12.47,12.47,0,0,0-10.43-14.2.23.23,0,0,1-.2-.26.23.23,0,0,1,.26-.19,12.93,12.93,0,0,1,10.82,14.72A.24.24,0,0,1,223.46,223Z" style="fill: rgb(38, 50, 56); transform-origin: 218.252px 215.544px;" id="elpg0ht0j1mrq" class="animable"></path><path d="M223,226.5h0a.92.92,0,0,1-.79-1l.38-3a.91.91,0,0,1,1-.79h0a.92.92,0,0,1,.8,1l-.38,3A.94.94,0,0,1,223,226.5Z" style="fill: rgb(38, 50, 56); transform-origin: 223.3px 224.104px;" id="el38mg0s4ilk9" class="animable"></path><path d="M300,209.36s45.83,20.66,68.21,15.26c23.27-5.63,57.41-32.45,57.41-32.45l-4.94-11.79S389,200,365.88,204.19c-25.22,4.52-51.84-24.78-71.2-20.82Z" style="fill: rgb(38, 50, 56); transform-origin: 360.15px 202.95px;" id="elg155e1zlboh" class="animable"></path><g id="el54r3b4pyhma"><path d="M313.45,191.92c3,6.53,19.53,10.84,29.21,8.88-8.94-3.5-17.74-8.67-26-12.54C314.08,189,312.64,190.16,313.45,191.92Z" style="opacity: 0.2; transform-origin: 327.942px 194.768px;" class="animable" id="elytn9tgygxs9"></path></g><path d="M297.12,195.33s44.17,6.28,64.39-2.64c22.14-9.78,57.34-43.1,57.34-43.1l-8.74-9.39s-28.67,22.32-51,29.88c-24.27,8.21-48.65-4-67.17-.26C295,185,297.12,195.33,297.12,195.33Z" style="fill: rgb(38, 50, 56); transform-origin: 355.395px 168.839px;" id="elplicrt5ahy" class="animable"></path><polygon points="420.64 149.61 409.46 138.85 406.1 142.37 417.68 153.91 420.64 149.61" style="fill: rgb(38, 50, 56); transform-origin: 413.37px 146.38px;" id="eld6ldhmcy627" class="animable"></polygon><g id="elxks8498qmni"><polygon points="420.64 149.61 409.46 138.85 406.1 142.37 417.68 153.91 420.64 149.61" style="fill: rgb(255, 255, 255); opacity: 0.2; transform-origin: 413.37px 146.38px;" class="animable" id="elato3z9b41ul"></polygon></g><polygon points="426.41 193.09 420.64 179.56 416.08 181.46 422.46 197.06 426.41 193.09" style="fill: rgb(38, 50, 56); transform-origin: 421.245px 188.31px;" id="el5m79ohp9veb" class="animable"></polygon><g id="eli9wi4ra5r2"><polygon points="426.41 193.09 420.64 179.56 416.08 181.46 422.46 197.06 426.41 193.09" style="fill: rgb(255, 255, 255); opacity: 0.2; transform-origin: 421.245px 188.31px;" class="animable" id="ely8rpmqf6lad"></polygon></g><path d="M205.9,216.6c.58.2.94.66.81,1s-.7.52-1.28.33-.93-.67-.8-1S205.33,216.41,205.9,216.6Z" style="fill: rgb(38, 50, 56); transform-origin: 205.67px 217.266px;" id="elyhxnfpkj7q" class="animable"></path><path d="M203.67,223.11c.58.2.94.66.81,1s-.7.52-1.28.32-.93-.66-.8-1S203.1,222.91,203.67,223.11Z" style="fill: rgb(38, 50, 56); transform-origin: 203.44px 223.77px;" id="elhk6salgy9d" class="animable"></path><path d="M204.67,221.14a21.88,21.88,0,0,1,4,4.44,3.53,3.53,0,0,0,1.46-2.58Z" style="fill: rgb(255, 86, 82); transform-origin: 207.4px 223.36px;" id="elnzpgbz166fg" class="animable"></path><path d="M212.72,220.44a5.63,5.63,0,0,1-.06,1.34.17.17,0,0,1-.2.15.18.18,0,0,1-.15-.2,4.77,4.77,0,0,0-1.24-4.18.2.2,0,0,1,0-.26.18.18,0,0,1,.25,0A4.93,4.93,0,0,1,212.72,220.44Z" style="fill: rgb(38, 50, 56); transform-origin: 211.879px 219.586px;" id="elv84f62u05fi" class="animable"></path><path d="M204.49,213.84a.35.35,0,0,1-.24.31,2.8,2.8,0,0,0-1.87,1.77.36.36,0,1,1-.69-.18,3.53,3.53,0,0,1,2.34-2.27.36.36,0,0,1,.45.23A.32.32,0,0,1,204.49,213.84Z" style="fill: rgb(38, 50, 56); transform-origin: 203.078px 214.846px;" id="el0a4xpkn1ti5" class="animable"></path><path d="M200.48,225.11a.33.33,0,0,1-.11.22.35.35,0,0,1-.5,0,3.53,3.53,0,0,1-1.07-3.08.35.35,0,0,1,.42-.28.36.36,0,0,1,.28.42,2.81,2.81,0,0,0,.87,2.43A.37.37,0,0,1,200.48,225.11Z" style="fill: rgb(38, 50, 56); transform-origin: 199.622px 223.698px;" id="elsmhf3t98fmj" class="animable"></path><path d="M221.68,180.57c.57-1.44,1.1-2.68,1.71-4s1.21-2.55,1.84-3.82c1.27-2.51,2.64-5,4.12-7.42s3.07-4.81,4.8-7.14l1.32-1.74,1.42-1.69c.45-.57,1-1.12,1.48-1.67l.76-.82.19-.2.33-.33a8.54,8.54,0,0,1,.73-.66,15.48,15.48,0,0,1,5.26-2.64,35.35,35.35,0,0,1,4.6-1,64.77,64.77,0,0,1,8.65-.71,107.19,107.19,0,0,1,16.72,1l-.21,5.66c-5.27.48-10.64,1.07-15.78,1.85a71.58,71.58,0,0,0-7.45,1.52,24.13,24.13,0,0,0-3.24,1.07,6.15,6.15,0,0,0-1.91,1.12s0,0,0,0,0-.05,0,0l-.14.18-.56.72c-.38.48-.76,1-1.11,1.47l-1.08,1.51-1,1.57c-1.36,2.12-2.68,4.31-3.92,6.57s-2.44,4.56-3.59,6.9c-.58,1.16-1.15,2.33-1.7,3.5l-1.58,3.46Z" style="fill: rgb(255, 139, 123); transform-origin: 248.645px 165.771px;" id="elljvnl5zizhn" class="animable"></path><path d="M218.75,185.43c-2.73-6.67,12-23.18,12-23.18l11,5.17s-.94,10.44-6.37,18C229.68,193.43,221.85,193,218.75,185.43Z" style="fill: rgb(38, 50, 56); transform-origin: 230.081px 176.759px;" id="el3pfqi75x1cn" class="animable"></path><g id="elr49bh7twyla"><path d="M218.75,185.43c-2.73-6.67,12-23.18,12-23.18l11,5.17s-.94,10.44-6.37,18C229.68,193.43,221.85,193,218.75,185.43Z" style="fill: rgb(255, 255, 255); opacity: 0.2; transform-origin: 230.081px 176.759px;" class="animable" id="ellltt04li9j9"></path></g><path d="M427.31,140.22a2.28,2.28,0,0,1,1.05,1.06,1.08,1.08,0,0,1-.15,1,.57.57,0,0,1-.52.28c-.94-.05-2.29-2.57-2.44-2.85a.18.18,0,0,1,0-.2.18.18,0,0,1,.18-.06A8.92,8.92,0,0,1,427.31,140.22Zm.17,1.91a.58.58,0,0,0,.23.08c.05,0,.12,0,.2-.13a.72.72,0,0,0,.12-.68c-.18-.51-1-1-2.25-1.47A7.19,7.19,0,0,0,427.48,142.13Z" style="fill: #407BFF; transform-origin: 426.82px 141.003px;" id="eljewta513xej" class="animable"></path><path d="M425.5,139.47s.05,0,.07.06c.46.76.92,2.95.36,3.6a.6.6,0,0,1-.73.11,1,1,0,0,1-.54-.58c-.39-1.06.55-3,.59-3.11a.18.18,0,0,1,.15-.1A.12.12,0,0,1,425.5,139.47Zm-.23,3.41.08,0c.21.09.28,0,.31,0,.34-.38.14-1.94-.24-2.84a4.36,4.36,0,0,0-.42,2.49A.71.71,0,0,0,425.27,142.88Z" style="fill: #407BFF; transform-origin: 425.377px 141.382px;" id="elcne0o53uuer" class="animable"></path><path d="M435.81,186.9a2.84,2.84,0,0,1,.91,1.66,1,1,0,0,1-.4.84.59.59,0,0,1-.55.11c-1-.32-1.95-3.59-2.06-4a.18.18,0,0,1,.07-.19.17.17,0,0,1,.21,0A13.32,13.32,0,0,1,435.81,186.9ZM435.6,189a.77.77,0,0,0,.28.2.21.21,0,0,0,.21,0,.67.67,0,0,0,.28-.55c0-.62-.82-1.58-2.16-2.6A9.79,9.79,0,0,0,435.6,189Z" style="fill: #407BFF; transform-origin: 435.213px 187.41px;" id="elrm5t0ftgefo" class="animable"></path><path d="M434,185.38l0,.06c.32.95.36,3.38-.36,3.86-.16.11-.44.18-.82-.14a1.36,1.36,0,0,1-.45-.94c-.08-1.23,1.26-2.77,1.32-2.84a.18.18,0,0,1,.17,0A.14.14,0,0,1,434,185.38Zm-1,3.43.08.08c.24.21.35.14.38.12.43-.29.53-2.07.31-3.13a4.16,4.16,0,0,0-1,2.32A.91.91,0,0,0,433,188.81Z" style="fill: #407BFF; transform-origin: 433.293px 187.376px;" id="elprtg31728vo" class="animable"></path><path d="M273.49,152.82l6.51,4,1.2-9.56s-6.3-2.21-7.85,1Z" style="fill: rgb(255, 139, 123); transform-origin: 277.275px 151.669px;" id="elkuv79wirjvk" class="animable"></path><polygon points="288.17 156.52 288.73 148.63 281.2 147.3 280 156.86 288.17 156.52" style="fill: rgb(255, 139, 123); transform-origin: 284.365px 152.08px;" id="el2udvaw416xz" class="animable"></polygon></g><g id="freepik--Desk--inject-61" class="animable" style="transform-origin: 221.255px 337.49px;"><rect x="108.19" y="294.56" width="226.13" height="12.53" style="fill: #407BFF; transform-origin: 221.255px 300.825px;" id="el3fyjppjxcsh" class="animable"></rect><g id="elzifqps5m91"><rect x="275.55" y="294.56" width="58.77" height="12.53" style="opacity: 0.2; transform-origin: 304.935px 300.825px;" class="animable" id="el7bu5qdngkq3"></rect></g><path d="M318,307.09H332.2a0,0,0,0,1,0,0V413.39a2.84,2.84,0,0,1-2.84,2.84h-8.49a2.84,2.84,0,0,1-2.84-2.84V307.09A0,0,0,0,1,318,307.09Z" style="fill: #407BFF; transform-origin: 325.1px 361.66px;" id="elj9991d083t" class="animable"></path><g id="el96bw3eu7xya"><path d="M325.11,307.09h7.09a0,0,0,0,1,0,0V413.39a2.84,2.84,0,0,1-2.84,2.84h-4.24a0,0,0,0,1,0,0V307.09A0,0,0,0,1,325.11,307.09Z" style="opacity: 0.2; transform-origin: 328.655px 361.66px;" class="animable" id="eluca544wq12k"></path></g><path d="M110.32,307.09h14.17a0,0,0,0,1,0,0V413.39a2.84,2.84,0,0,1-2.84,2.84h-8.49a2.84,2.84,0,0,1-2.84-2.84V307.09a0,0,0,0,1,0,0Z" style="fill: #407BFF; transform-origin: 117.405px 361.66px;" id="elz09ttcnjokj" class="animable"></path><g id="elex3culcgwch"><path d="M117.4,307.09h7.09a0,0,0,0,1,0,0V413.39a2.84,2.84,0,0,1-2.84,2.84H117.4a0,0,0,0,1,0,0V307.09A0,0,0,0,1,117.4,307.09Z" style="opacity: 0.2; transform-origin: 120.945px 361.66px;" class="animable" id="ely0pyto39e7"></path></g><path d="M162,307.09h14.17a0,0,0,0,1,0,0V413.39a2.84,2.84,0,0,1-2.84,2.84h-8.49a2.84,2.84,0,0,1-2.84-2.84V307.09A0,0,0,0,1,162,307.09Z" style="fill: #407BFF; transform-origin: 169.085px 361.66px;" id="el7dz2b82k5tg" class="animable"></path><g id="el4fun3yb903t"><path d="M169.09,307.09h7.09a0,0,0,0,1,0,0V413.39a2.84,2.84,0,0,1-2.84,2.84h-4.24a0,0,0,0,1,0,0V307.09A0,0,0,0,1,169.09,307.09Z" style="opacity: 0.2; transform-origin: 172.635px 361.66px;" class="animable" id="el1npsiwic0r3h"></path></g><rect x="120.95" y="325.27" width="200.05" height="24.57" style="fill: #407BFF; transform-origin: 220.975px 337.555px;" id="elk65fd3a52a" class="animable"></rect><g id="el35c0yvl8wox"><rect x="275.55" y="325.27" width="45.45" height="24.57" style="opacity: 0.2; transform-origin: 298.275px 337.555px;" class="animable" id="el6cbubmopsqa"></rect></g><path d="M266.34,307.09h14.17a0,0,0,0,1,0,0V413.39a2.84,2.84,0,0,1-2.84,2.84h-8.49a2.84,2.84,0,0,1-2.84-2.84V307.09A0,0,0,0,1,266.34,307.09Z" style="fill: #407BFF; transform-origin: 273.425px 361.66px;" id="elvzffrserxu" class="animable"></path><g id="elf0f6vi0285s"><path d="M273.42,307.09h7.09a0,0,0,0,1,0,0V413.39a2.84,2.84,0,0,1-2.84,2.84h-4.24a0,0,0,0,1,0,0V307.09A0,0,0,0,1,273.42,307.09Z" style="opacity: 0.2; transform-origin: 276.965px 361.66px;" class="animable" id="elrdonky97rt"></path></g><path d="M143.15,284.77a10.81,10.81,0,0,0,.22-2.15H121.75a10.79,10.79,0,0,0,18,8.06,3.41,3.41,0,0,0,3.41-5.91Zm-1.73,5.29a2.38,2.38,0,0,1-.88-.17,10.79,10.79,0,0,0,2.33-4,2.34,2.34,0,0,1-1.45,4.19Z" style="fill: #407BFF; transform-origin: 133.308px 288.031px;" id="el2c0fblh0vio" class="animable"></path><g id="elmm0e8ewse48"><path d="M143.15,284.77a10.81,10.81,0,0,0,.22-2.15H121.75a10.79,10.79,0,0,0,18,8.06,3.41,3.41,0,0,0,3.41-5.91Zm-1.73,5.29a2.38,2.38,0,0,1-.88-.17,10.79,10.79,0,0,0,2.33-4,2.34,2.34,0,0,1-1.45,4.19Z" style="fill: rgb(250, 250, 250); opacity: 0.3; transform-origin: 133.308px 288.031px;" class="animable" id="elz37lw0ed7x"></path></g><path d="M119.17,292.31c0,1.24,6,2.25,13.39,2.25s13.38-1,13.38-2.25Z" style="fill: #407BFF; transform-origin: 132.555px 293.435px;" id="elcjhcxd2s2n5" class="animable"></path><g id="el7r81b5uaamu"><path d="M119.17,292.31c0,1.24,6,2.25,13.39,2.25s13.38-1,13.38-2.25Z" style="fill: rgb(250, 250, 250); opacity: 0.6; transform-origin: 132.555px 293.435px;" class="animable" id="el01spvh05abj"></path></g><polygon points="204 258.75 149.12 258.75 156.23 292.56 211.12 292.56 204 258.75" style="fill: rgb(38, 50, 56); transform-origin: 180.12px 275.655px;" id="ellc32xe5rty" class="animable"></polygon><polygon points="202.99 258.75 148.1 258.75 155.21 292.56 155.21 294.56 210.1 294.56 210.1 292.56 202.99 258.75" style="fill: #407BFF; transform-origin: 179.1px 276.655px;" id="elfs4r0mu9ds7" class="animable"></polygon><g id="elnbs2s5hvzx"><polygon points="202.99 258.75 148.1 258.75 155.21 292.56 155.21 294.56 210.1 294.56 210.1 292.56 202.99 258.75" style="fill: rgb(250, 250, 250); opacity: 0.5; transform-origin: 179.1px 276.655px;" class="animable" id="elaqwzb3hq52h"></polygon></g><g id="elxnn6jfylxil"><rect x="210.1" y="292.56" width="18.6" height="2" style="fill: rgb(38, 50, 56); transform-origin: 219.4px 293.56px; transform: rotate(180deg);" class="animable" id="el0l5a60kqh5a"></rect></g><rect x="262.36" y="287.21" width="65.59" height="7.35" style="fill: #407BFF; transform-origin: 295.155px 290.885px;" id="elbrfi5ro29d9" class="animable"></rect><g id="elx03dxs32p39"><rect x="262.36" y="287.21" width="44.42" height="7.35" style="fill: rgb(250, 250, 250); opacity: 0.8; transform-origin: 284.57px 290.885px;" class="animable" id="el9twawuhhlek"></rect></g><g id="elrkos4zji85p"><rect x="306.78" y="287.21" width="21.17" height="7.35" style="fill: rgb(250, 250, 250); opacity: 0.5; transform-origin: 317.365px 290.885px; transform: rotate(180deg);" class="animable" id="el7t6i3oblir"></rect></g><g id="elcciduk0m46l"><rect x="309.75" y="288.97" width="19.28" height="0.45" style="fill: #407BFF; opacity: 0.4; transform-origin: 319.39px 289.195px; transform: rotate(180deg);" class="animable" id="elrh2ri02088a"></rect></g><g id="elfrgunu7xpjf"><rect x="308.42" y="290.28" width="16.67" height="0.45" style="fill: #407BFF; opacity: 0.4; transform-origin: 316.755px 290.505px; transform: rotate(180deg);" class="animable" id="el0l7qecg8bky"></rect></g><g id="eljq53d8zm1j"><rect x="311.7" y="292.04" width="16.67" height="0.45" style="fill: #407BFF; opacity: 0.4; transform-origin: 320.035px 292.265px; transform: rotate(180deg);" class="animable" id="el5o81i7sdke"></rect></g><g id="elue7tvkxz2vg"><rect x="260.72" y="292.49" width="35.94" height="0.45" style="fill: #407BFF; opacity: 0.1; transform-origin: 278.69px 292.715px;" class="animable" id="elucu7mphp9fb"></rect></g><g id="elw3wqyox6k8"><rect x="270.09" y="290.65" width="31.07" height="0.45" style="fill: #407BFF; opacity: 0.1; transform-origin: 285.625px 290.875px;" class="animable" id="elri5d6c15457"></rect></g><g id="eldwmwgui9cqc"><rect x="262.1" y="288.26" width="31.07" height="0.45" style="fill: #407BFF; opacity: 0.1; transform-origin: 277.635px 288.485px;" class="animable" id="ell5bpr3h8p7"></rect></g></g><defs>     <filter id="active" height="200%">         <feMorphology in="SourceAlpha" result="DILATED" operator="dilate" radius="2"></feMorphology>                <feFlood flood-color="#32DFEC" flood-opacity="1" result="PINK"></feFlood>        <feComposite in="PINK" in2="DILATED" operator="in" result="OUTLINE"></feComposite>        <feMerge>            <feMergeNode in="OUTLINE"></feMergeNode>            <feMergeNode in="SourceGraphic"></feMergeNode>        </feMerge>    </filter>    <filter id="hover" height="200%">        <feMorphology in="SourceAlpha" result="DILATED" operator="dilate" radius="2"></feMorphology>                <feFlood flood-color="#ff0000" flood-opacity="0.5" result="PINK"></feFlood>        <feComposite in="PINK" in2="DILATED" operator="in" result="OUTLINE"></feComposite>        <feMerge>            <feMergeNode in="OUTLINE"></feMergeNode>            <feMergeNode in="SourceGraphic"></feMergeNode>        </feMerge>            <feColorMatrix type="matrix" values="0   0   0   0   0                0   1   0   0   0                0   0   0   0   0                0   0   0   1   0 "></feColorMatrix>    </filter></defs></svg>